<mxfile host="app.diagrams.net" modified="2024-04-24T08:50:24.139Z" agent="Mozilla/5.0 (Windows NT 10.0; Win64; x64) AppleWebKit/537.36 (KHTML, like Gecko) Chrome/124.0.0.0 Safari/537.36" etag="gaC7tohxusigHhBgQoTQ" version="24.2.8" type="github">
  <diagram id="R2lEEEUBdFMjLlhIrx00" name="Page-1">
    <mxGraphModel dx="1434" dy="772" grid="1" gridSize="10" guides="1" tooltips="1" connect="1" arrows="1" fold="1" page="1" pageScale="1" pageWidth="850" pageHeight="1100" math="0" shadow="0" extFonts="Permanent Marker^https://fonts.googleapis.com/css?family=Permanent+Marker">
      <root>
        <mxCell id="0" />
        <mxCell id="1" parent="0" />
        <mxCell id="FoegT2T0JmAVWGkSSOV6-1" value="&lt;font style=&quot;font-size: 16px;&quot;&gt;Customer&lt;/font&gt;" style="rounded=0;whiteSpace=wrap;html=1;" vertex="1" parent="1">
          <mxGeometry x="120" y="270" width="120" height="60" as="geometry" />
        </mxCell>
        <mxCell id="FoegT2T0JmAVWGkSSOV6-2" value="&lt;font style=&quot;font-size: 16px;&quot;&gt;Book&lt;/font&gt;" style="rounded=0;whiteSpace=wrap;html=1;" vertex="1" parent="1">
          <mxGeometry x="520" y="270" width="120" height="60" as="geometry" />
        </mxCell>
        <mxCell id="FoegT2T0JmAVWGkSSOV6-3" value="" style="endArrow=none;html=1;rounded=0;exitX=0.083;exitY=-0.05;exitDx=0;exitDy=0;exitPerimeter=0;" edge="1" parent="1" source="FoegT2T0JmAVWGkSSOV6-1" target="FoegT2T0JmAVWGkSSOV6-8">
          <mxGeometry width="50" height="50" relative="1" as="geometry">
            <mxPoint x="140" y="270" as="sourcePoint" />
            <mxPoint x="110" y="210" as="targetPoint" />
          </mxGeometry>
        </mxCell>
        <mxCell id="FoegT2T0JmAVWGkSSOV6-4" value="" style="endArrow=none;html=1;rounded=0;entryX=0.5;entryY=1;entryDx=0;entryDy=0;" edge="1" parent="1" target="FoegT2T0JmAVWGkSSOV6-9">
          <mxGeometry width="50" height="50" relative="1" as="geometry">
            <mxPoint x="160" y="270" as="sourcePoint" />
            <mxPoint x="160" y="200" as="targetPoint" />
          </mxGeometry>
        </mxCell>
        <mxCell id="FoegT2T0JmAVWGkSSOV6-5" value="" style="endArrow=none;html=1;rounded=0;exitX=0.5;exitY=1;exitDx=0;exitDy=0;entryX=1;entryY=0.5;entryDx=0;entryDy=0;" edge="1" parent="1" source="FoegT2T0JmAVWGkSSOV6-1" target="FoegT2T0JmAVWGkSSOV6-15">
          <mxGeometry width="50" height="50" relative="1" as="geometry">
            <mxPoint x="185" y="270" as="sourcePoint" />
            <mxPoint x="90" y="370" as="targetPoint" />
          </mxGeometry>
        </mxCell>
        <mxCell id="FoegT2T0JmAVWGkSSOV6-6" value="" style="endArrow=none;html=1;rounded=0;entryX=0.413;entryY=1.017;entryDx=0;entryDy=0;entryPerimeter=0;" edge="1" parent="1" target="FoegT2T0JmAVWGkSSOV6-17">
          <mxGeometry width="50" height="50" relative="1" as="geometry">
            <mxPoint x="220" y="270" as="sourcePoint" />
            <mxPoint x="240" y="210" as="targetPoint" />
          </mxGeometry>
        </mxCell>
        <mxCell id="FoegT2T0JmAVWGkSSOV6-7" value="" style="endArrow=none;html=1;rounded=0;entryX=0.5;entryY=0;entryDx=0;entryDy=0;exitX=0.75;exitY=1;exitDx=0;exitDy=0;" edge="1" parent="1" source="FoegT2T0JmAVWGkSSOV6-1" target="FoegT2T0JmAVWGkSSOV6-16">
          <mxGeometry width="50" height="50" relative="1" as="geometry">
            <mxPoint x="240" y="300" as="sourcePoint" />
            <mxPoint x="300" y="270" as="targetPoint" />
          </mxGeometry>
        </mxCell>
        <mxCell id="FoegT2T0JmAVWGkSSOV6-8" value="&lt;u&gt;CustomerID&lt;/u&gt;" style="ellipse;whiteSpace=wrap;html=1;" vertex="1" parent="1">
          <mxGeometry x="10" y="170" width="80" height="60" as="geometry" />
        </mxCell>
        <mxCell id="FoegT2T0JmAVWGkSSOV6-9" value="Name" style="ellipse;whiteSpace=wrap;html=1;" vertex="1" parent="1">
          <mxGeometry x="110" y="140" width="80" height="60" as="geometry" />
        </mxCell>
        <mxCell id="FoegT2T0JmAVWGkSSOV6-10" value="" style="endArrow=none;html=1;rounded=0;exitX=0;exitY=0;exitDx=0;exitDy=0;entryX=0.5;entryY=1;entryDx=0;entryDy=0;" edge="1" parent="1" source="FoegT2T0JmAVWGkSSOV6-9" target="FoegT2T0JmAVWGkSSOV6-11">
          <mxGeometry width="50" height="50" relative="1" as="geometry">
            <mxPoint x="125" y="140" as="sourcePoint" />
            <mxPoint x="100" y="100" as="targetPoint" />
          </mxGeometry>
        </mxCell>
        <mxCell id="FoegT2T0JmAVWGkSSOV6-11" value="Fname" style="ellipse;whiteSpace=wrap;html=1;" vertex="1" parent="1">
          <mxGeometry x="40" y="50" width="80" height="60" as="geometry" />
        </mxCell>
        <mxCell id="FoegT2T0JmAVWGkSSOV6-12" value="Fname" style="ellipse;whiteSpace=wrap;html=1;" vertex="1" parent="1">
          <mxGeometry x="150" y="50" width="80" height="60" as="geometry" />
        </mxCell>
        <mxCell id="FoegT2T0JmAVWGkSSOV6-14" value="" style="endArrow=none;html=1;rounded=0;entryX=0.5;entryY=1;entryDx=0;entryDy=0;exitX=0.663;exitY=0;exitDx=0;exitDy=0;exitPerimeter=0;" edge="1" parent="1" source="FoegT2T0JmAVWGkSSOV6-9" target="FoegT2T0JmAVWGkSSOV6-12">
          <mxGeometry width="50" height="50" relative="1" as="geometry">
            <mxPoint x="160" y="150" as="sourcePoint" />
            <mxPoint x="210" y="100" as="targetPoint" />
          </mxGeometry>
        </mxCell>
        <mxCell id="FoegT2T0JmAVWGkSSOV6-15" value="Phone" style="ellipse;whiteSpace=wrap;html=1;" vertex="1" parent="1">
          <mxGeometry x="30" y="340" width="80" height="60" as="geometry" />
        </mxCell>
        <mxCell id="FoegT2T0JmAVWGkSSOV6-16" value="Password" style="ellipse;whiteSpace=wrap;html=1;" vertex="1" parent="1">
          <mxGeometry x="160" y="380" width="80" height="60" as="geometry" />
        </mxCell>
        <mxCell id="FoegT2T0JmAVWGkSSOV6-17" value="Email" style="ellipse;whiteSpace=wrap;html=1;" vertex="1" parent="1">
          <mxGeometry x="210" y="150" width="80" height="60" as="geometry" />
        </mxCell>
        <mxCell id="FoegT2T0JmAVWGkSSOV6-18" value="Buys" style="rhombus;whiteSpace=wrap;html=1;" vertex="1" parent="1">
          <mxGeometry x="340" y="260" width="80" height="80" as="geometry" />
        </mxCell>
        <mxCell id="FoegT2T0JmAVWGkSSOV6-19" value="" style="endArrow=none;html=1;rounded=0;exitX=1;exitY=0.5;exitDx=0;exitDy=0;entryX=0;entryY=0.5;entryDx=0;entryDy=0;" edge="1" parent="1" source="FoegT2T0JmAVWGkSSOV6-1" target="FoegT2T0JmAVWGkSSOV6-18">
          <mxGeometry width="50" height="50" relative="1" as="geometry">
            <mxPoint x="400" y="420" as="sourcePoint" />
            <mxPoint x="450" y="370" as="targetPoint" />
          </mxGeometry>
        </mxCell>
        <mxCell id="FoegT2T0JmAVWGkSSOV6-20" value="" style="endArrow=none;html=1;rounded=0;entryX=0;entryY=0.5;entryDx=0;entryDy=0;exitX=1;exitY=0.5;exitDx=0;exitDy=0;" edge="1" parent="1" source="FoegT2T0JmAVWGkSSOV6-18" target="FoegT2T0JmAVWGkSSOV6-2">
          <mxGeometry width="50" height="50" relative="1" as="geometry">
            <mxPoint x="400" y="420" as="sourcePoint" />
            <mxPoint x="450" y="370" as="targetPoint" />
          </mxGeometry>
        </mxCell>
        <mxCell id="FoegT2T0JmAVWGkSSOV6-21" value="&lt;u&gt;BookID&lt;/u&gt;" style="ellipse;whiteSpace=wrap;html=1;" vertex="1" parent="1">
          <mxGeometry x="430" y="160" width="90" height="60" as="geometry" />
        </mxCell>
        <mxCell id="FoegT2T0JmAVWGkSSOV6-22" value="Author" style="ellipse;whiteSpace=wrap;html=1;" vertex="1" parent="1">
          <mxGeometry x="660" y="170" width="90" height="60" as="geometry" />
        </mxCell>
        <mxCell id="FoegT2T0JmAVWGkSSOV6-23" value="Price" style="ellipse;whiteSpace=wrap;html=1;" vertex="1" parent="1">
          <mxGeometry x="720" y="240" width="90" height="60" as="geometry" />
        </mxCell>
        <mxCell id="FoegT2T0JmAVWGkSSOV6-24" value="BookName" style="ellipse;whiteSpace=wrap;html=1;" vertex="1" parent="1">
          <mxGeometry x="540" y="160" width="90" height="60" as="geometry" />
        </mxCell>
        <mxCell id="FoegT2T0JmAVWGkSSOV6-25" value="Quantity" style="ellipse;whiteSpace=wrap;html=1;" vertex="1" parent="1">
          <mxGeometry x="570" y="380" width="90" height="60" as="geometry" />
        </mxCell>
        <mxCell id="FoegT2T0JmAVWGkSSOV6-26" value="Language" style="ellipse;whiteSpace=wrap;html=1;" vertex="1" parent="1">
          <mxGeometry x="670" y="350" width="90" height="60" as="geometry" />
        </mxCell>
        <mxCell id="FoegT2T0JmAVWGkSSOV6-27" value="Category" style="ellipse;whiteSpace=wrap;html=1;" vertex="1" parent="1">
          <mxGeometry x="450" y="390" width="90" height="60" as="geometry" />
        </mxCell>
        <mxCell id="FoegT2T0JmAVWGkSSOV6-29" value="" style="endArrow=none;html=1;rounded=0;entryX=0.5;entryY=1;entryDx=0;entryDy=0;exitX=0;exitY=0;exitDx=0;exitDy=0;" edge="1" parent="1" source="FoegT2T0JmAVWGkSSOV6-2" target="FoegT2T0JmAVWGkSSOV6-21">
          <mxGeometry width="50" height="50" relative="1" as="geometry">
            <mxPoint x="460" y="290" as="sourcePoint" />
            <mxPoint x="510" y="240" as="targetPoint" />
          </mxGeometry>
        </mxCell>
        <mxCell id="FoegT2T0JmAVWGkSSOV6-30" value="" style="endArrow=none;html=1;rounded=0;entryX=0.5;entryY=1;entryDx=0;entryDy=0;exitX=0.25;exitY=0;exitDx=0;exitDy=0;" edge="1" parent="1" source="FoegT2T0JmAVWGkSSOV6-2" target="FoegT2T0JmAVWGkSSOV6-24">
          <mxGeometry width="50" height="50" relative="1" as="geometry">
            <mxPoint x="400" y="420" as="sourcePoint" />
            <mxPoint x="450" y="370" as="targetPoint" />
          </mxGeometry>
        </mxCell>
        <mxCell id="FoegT2T0JmAVWGkSSOV6-31" value="" style="endArrow=none;html=1;rounded=0;entryX=0;entryY=1;entryDx=0;entryDy=0;exitX=1;exitY=0;exitDx=0;exitDy=0;" edge="1" parent="1" source="FoegT2T0JmAVWGkSSOV6-2" target="FoegT2T0JmAVWGkSSOV6-22">
          <mxGeometry width="50" height="50" relative="1" as="geometry">
            <mxPoint x="620" y="290" as="sourcePoint" />
            <mxPoint x="670" y="240" as="targetPoint" />
          </mxGeometry>
        </mxCell>
        <mxCell id="FoegT2T0JmAVWGkSSOV6-32" value="" style="endArrow=none;html=1;rounded=0;entryX=0;entryY=0.5;entryDx=0;entryDy=0;exitX=0.983;exitY=0.367;exitDx=0;exitDy=0;exitPerimeter=0;" edge="1" parent="1" source="FoegT2T0JmAVWGkSSOV6-2" target="FoegT2T0JmAVWGkSSOV6-23">
          <mxGeometry width="50" height="50" relative="1" as="geometry">
            <mxPoint x="440" y="480" as="sourcePoint" />
            <mxPoint x="490" y="430" as="targetPoint" />
          </mxGeometry>
        </mxCell>
        <mxCell id="FoegT2T0JmAVWGkSSOV6-33" value="" style="endArrow=none;html=1;rounded=0;entryX=0;entryY=0;entryDx=0;entryDy=0;exitX=1;exitY=1;exitDx=0;exitDy=0;" edge="1" parent="1" source="FoegT2T0JmAVWGkSSOV6-2" target="FoegT2T0JmAVWGkSSOV6-26">
          <mxGeometry width="50" height="50" relative="1" as="geometry">
            <mxPoint x="490" y="510" as="sourcePoint" />
            <mxPoint x="540" y="460" as="targetPoint" />
          </mxGeometry>
        </mxCell>
        <mxCell id="FoegT2T0JmAVWGkSSOV6-34" value="" style="endArrow=none;html=1;rounded=0;entryX=0.75;entryY=1;entryDx=0;entryDy=0;exitX=0.5;exitY=0;exitDx=0;exitDy=0;" edge="1" parent="1" source="FoegT2T0JmAVWGkSSOV6-25" target="FoegT2T0JmAVWGkSSOV6-2">
          <mxGeometry width="50" height="50" relative="1" as="geometry">
            <mxPoint x="460" y="400" as="sourcePoint" />
            <mxPoint x="510" y="350" as="targetPoint" />
          </mxGeometry>
        </mxCell>
        <mxCell id="FoegT2T0JmAVWGkSSOV6-35" value="" style="endArrow=none;html=1;rounded=0;entryX=0.342;entryY=1.033;entryDx=0;entryDy=0;entryPerimeter=0;exitX=0.5;exitY=0;exitDx=0;exitDy=0;" edge="1" parent="1" source="FoegT2T0JmAVWGkSSOV6-27" target="FoegT2T0JmAVWGkSSOV6-2">
          <mxGeometry width="50" height="50" relative="1" as="geometry">
            <mxPoint x="460" y="410" as="sourcePoint" />
            <mxPoint x="510" y="360" as="targetPoint" />
          </mxGeometry>
        </mxCell>
      </root>
    </mxGraphModel>
  </diagram>
</mxfile>
